<svg id="visual" viewBox="0 0 960 540" width="960" height="540" xmlns="http://www.w3.org/2000/svg" xmlns:xlink="http://www.w3.org/1999/xlink" version="1.1">
<rect x="0" y="0" width="960" height="540" fill="transparent">
</rect>
<defs>
<linearGradient id="grad1_0" x1="43.8%" y1="0%" x2="100%" y2="100%">
<stop offset="14.444444444444446%" stop-color="#0e1318" stop-opacity="1">
</stop>
<stop offset="85.55555555555554%" stop-color="#0e1318" stop-opacity="1">
</stop>
</linearGradient>
</defs>
<defs>
<linearGradient id="grad2_0" x1="0%" y1="0%" x2="56.3%" y2="100%">
<stop offset="14.444444444444446%" stop-color="#0e1318" stop-opacity="1">
</stop>
<stop offset="85.55555555555554%" stop-color="#0e1318" stop-opacity="1">
</stop>
</linearGradient>
</defs>
<g transform="translate(960, 0)">
<path d="M0 459C-23.4 386.4 -46.9 313.9 -81 302.3C-115.1 290.8 -160 340.2 -201.5 349C-243 357.8 -281.3 325.8 -282.8 282.8C-284.4 239.8 -249.3 185.8 -278.9 161C-308.4 136.2 -402.6 140.7 -443.4 118.8C-484.2 96.8 -471.6 48.4 -459 0L0 0Z" fill="#6812ca"></path></g><g transform="translate(0, 540)"><path d="M0 -459C36.8 -438.1 73.6 -417.2 104.6 -390.2C135.5 -363.3 160.6 -330.2 171.5 -297C182.4 -263.9 179.1 -230.6 227 -227C274.9 -223.3 373.9 -249.3 397.5 -229.5C421.1 -209.7 369.4 -144.2 367.1 -98.4C364.7 -52.5 411.9 -26.2 459 0L0 0Z" fill="#6812ca">
</path>
</g>
</svg>