<svg xmlns="http://www.w3.org/2000/svg" xmlns:xlink="http://www.w3.org/1999/xlink" id="visual" width="960" height="540" version="1.1" viewBox="0 0 960 540"><rect width="960" height="540" x="0" y="0" fill="#001220"/><defs><linearGradient id="grad1_0" x1="43.8%" x2="100%" y1="0%" y2="100%"><stop offset="14.444%" stop-color="#a81ddd" stop-opacity="1"/><stop offset="85.556%" stop-color="#a81ddd" stop-opacity="1"/></linearGradient></defs><defs><linearGradient id="grad1_1" x1="43.8%" x2="100%" y1="0%" y2="100%"><stop offset="14.444%" stop-color="#a81ddd" stop-opacity="1"/><stop offset="85.556%" stop-color="#7634cd" stop-opacity="1"/></linearGradient></defs><defs><linearGradient id="grad1_2" x1="43.8%" x2="100%" y1="0%" y2="100%"><stop offset="14.444%" stop-color="#463ab6" stop-opacity="1"/><stop offset="85.556%" stop-color="#7634cd" stop-opacity="1"/></linearGradient></defs><defs><linearGradient id="grad1_3" x1="43.8%" x2="100%" y1="0%" y2="100%"><stop offset="14.444%" stop-color="#463ab6" stop-opacity="1"/><stop offset="85.556%" stop-color="#0d399b" stop-opacity="1"/></linearGradient></defs><defs><linearGradient id="grad1_4" x1="43.8%" x2="100%" y1="0%" y2="100%"><stop offset="14.444%" stop-color="#00327d" stop-opacity="1"/><stop offset="85.556%" stop-color="#0d399b" stop-opacity="1"/></linearGradient></defs><defs><linearGradient id="grad1_5" x1="43.8%" x2="100%" y1="0%" y2="100%"><stop offset="14.444%" stop-color="#00327d" stop-opacity="1"/><stop offset="85.556%" stop-color="#00295e" stop-opacity="1"/></linearGradient></defs><defs><linearGradient id="grad1_6" x1="43.8%" x2="100%" y1="0%" y2="100%"><stop offset="14.444%" stop-color="#001e3e" stop-opacity="1"/><stop offset="85.556%" stop-color="#00295e" stop-opacity="1"/></linearGradient></defs><defs><linearGradient id="grad1_7" x1="43.8%" x2="100%" y1="0%" y2="100%"><stop offset="14.444%" stop-color="#001e3e" stop-opacity="1"/><stop offset="85.556%" stop-color="#001220" stop-opacity="1"/></linearGradient></defs><defs><linearGradient id="grad2_0" x1="0%" x2="56.3%" y1="0%" y2="100%"><stop offset="14.444%" stop-color="#a81ddd" stop-opacity="1"/><stop offset="85.556%" stop-color="#a81ddd" stop-opacity="1"/></linearGradient></defs><defs><linearGradient id="grad2_1" x1="0%" x2="56.3%" y1="0%" y2="100%"><stop offset="14.444%" stop-color="#7634cd" stop-opacity="1"/><stop offset="85.556%" stop-color="#a81ddd" stop-opacity="1"/></linearGradient></defs><defs><linearGradient id="grad2_2" x1="0%" x2="56.3%" y1="0%" y2="100%"><stop offset="14.444%" stop-color="#7634cd" stop-opacity="1"/><stop offset="85.556%" stop-color="#463ab6" stop-opacity="1"/></linearGradient></defs><defs><linearGradient id="grad2_3" x1="0%" x2="56.3%" y1="0%" y2="100%"><stop offset="14.444%" stop-color="#0d399b" stop-opacity="1"/><stop offset="85.556%" stop-color="#463ab6" stop-opacity="1"/></linearGradient></defs><defs><linearGradient id="grad2_4" x1="0%" x2="56.3%" y1="0%" y2="100%"><stop offset="14.444%" stop-color="#0d399b" stop-opacity="1"/><stop offset="85.556%" stop-color="#00327d" stop-opacity="1"/></linearGradient></defs><defs><linearGradient id="grad2_5" x1="0%" x2="56.3%" y1="0%" y2="100%"><stop offset="14.444%" stop-color="#00295e" stop-opacity="1"/><stop offset="85.556%" stop-color="#00327d" stop-opacity="1"/></linearGradient></defs><defs><linearGradient id="grad2_6" x1="0%" x2="56.3%" y1="0%" y2="100%"><stop offset="14.444%" stop-color="#00295e" stop-opacity="1"/><stop offset="85.556%" stop-color="#001e3e" stop-opacity="1"/></linearGradient></defs><defs><linearGradient id="grad2_7" x1="0%" x2="56.3%" y1="0%" y2="100%"><stop offset="14.444%" stop-color="#001220" stop-opacity="1"/><stop offset="85.556%" stop-color="#001e3e" stop-opacity="1"/></linearGradient></defs><g><path fill="#00192f" d="M0 540C-25.3 537 -50.6 534 -76.4 531.5C-102.2 529 -128.4 527 -152.1 518.1C-175.8 509.3 -197 493.6 -220.2 482.1C-243.4 470.6 -268.7 463.3 -287.6 447.5C-306.6 431.8 -319.2 407.5 -338.6 390.7C-357.9 374 -383.9 364.7 -400.5 347.1C-417.2 329.4 -424.4 303.3 -438.3 281.7C-452.2 260 -472.7 242.8 -483 220.6C-493.3 198.3 -493.4 171 -497 145.9C-500.7 120.9 -507.9 98.1 -515.7 74.1C-523.5 50.2 -531.7 25.1 -540 0L0 0Z" transform="translate(960, 0)"/><path fill="#00244e" d="M0 472.5C-22.2 469.9 -44.3 467.3 -66.9 465.1C-89.4 462.9 -112.4 461.1 -133.1 453.4C-153.8 445.6 -172.3 431.9 -192.6 421.8C-213 411.8 -235.1 405.4 -251.7 391.6C-268.3 377.8 -279.3 356.5 -296.2 341.9C-313.2 327.2 -335.9 319.1 -350.5 303.7C-365 288.2 -371.4 265.4 -383.5 246.5C-395.7 227.5 -413.6 212.5 -422.6 193C-431.6 173.5 -431.7 149.6 -434.9 127.7C-438.1 105.8 -444.4 85.8 -451.2 64.9C-458 43.9 -465.3 22 -472.5 0L0 0Z" transform="translate(960, 0)"/><path fill="#002e6e" d="M0 405C-19 402.8 -38 400.5 -57.3 398.7C-76.7 396.8 -96.3 395.2 -114.1 388.6C-131.9 382 -147.7 370.2 -165.1 361.6C-182.5 353 -201.5 347.5 -215.7 335.7C-229.9 323.8 -239.4 305.6 -253.9 293C-268.4 280.5 -287.9 273.6 -300.4 260.3C-312.9 247.1 -318.3 227.5 -328.7 211.3C-339.1 195 -354.5 182.1 -362.3 165.4C-370 148.7 -370 128.2 -372.8 109.5C-375.5 90.7 -380.9 73.6 -386.8 55.6C-392.6 37.7 -398.8 18.8 -405 0L0 0Z" transform="translate(960, 0)"/><path fill="#00368d" d="M0 337.5C-15.8 335.6 -31.7 333.8 -47.8 332.2C-63.9 330.6 -80.3 329.4 -95.1 323.8C-109.9 318.3 -123.1 308.5 -137.6 301.3C-152.1 294.1 -167.9 289.6 -179.8 279.7C-191.6 269.9 -199.5 254.7 -211.6 244.2C-223.7 233.7 -239.9 228 -250.3 216.9C-260.7 205.9 -265.3 189.6 -273.9 176C-282.6 162.5 -295.4 151.8 -301.9 137.9C-308.3 124 -308.4 106.9 -310.6 91.2C-312.9 75.5 -317.5 61.3 -322.3 46.3C-327.2 31.4 -332.3 15.7 -337.5 0L0 0Z" transform="translate(960, 0)"/><path fill="#2d3aa9" d="M0 270C-12.7 268.5 -25.3 267 -38.2 265.8C-51.1 264.5 -64.2 263.5 -76.1 259.1C-87.9 254.6 -98.5 246.8 -110.1 241.1C-121.7 235.3 -134.3 231.7 -143.8 223.8C-153.3 215.9 -159.6 203.7 -169.3 195.4C-178.9 187 -192 182.4 -200.3 173.5C-208.6 164.7 -212.2 151.7 -219.1 140.8C-226.1 130 -236.4 121.4 -241.5 110.3C-246.7 99.2 -246.7 85.5 -248.5 73C-250.3 60.4 -254 49 -257.8 37.1C-261.7 25.1 -265.9 12.6 -270 0L0 0Z" transform="translate(960, 0)"/><path fill="#5e38c2" d="M0 202.5C-9.5 201.4 -19 200.3 -28.7 199.3C-38.3 198.4 -48.2 197.6 -57.1 194.3C-65.9 191 -73.9 185.1 -82.6 180.8C-91.3 176.5 -100.7 173.7 -107.9 167.8C-115 161.9 -119.7 152.8 -127 146.5C-134.2 140.2 -144 136.8 -150.2 130.2C-156.4 123.5 -159.2 113.7 -164.4 105.6C-169.6 97.5 -177.3 91.1 -181.1 82.7C-185 74.4 -185 64.1 -186.4 54.7C-187.8 45.3 -190.5 36.8 -193.4 27.8C-196.3 18.8 -199.4 9.4 -202.5 0L0 0Z" transform="translate(960, 0)"/><path fill="#8f2cd6" d="M0 135C-6.3 134.3 -12.7 133.5 -19.1 132.9C-25.6 132.3 -32.1 131.7 -38 129.5C-44 127.3 -49.2 123.4 -55 120.5C-60.8 117.7 -67.2 115.8 -71.9 111.9C-76.6 107.9 -79.8 101.9 -84.6 97.7C-89.5 93.5 -96 91.2 -100.1 86.8C-104.3 82.4 -106.1 75.8 -109.6 70.4C-113 65 -118.2 60.7 -120.8 55.1C-123.3 49.6 -123.3 42.7 -124.3 36.5C-125.2 30.2 -127 24.5 -128.9 18.5C-130.9 12.6 -132.9 6.3 -135 0L0 0Z" transform="translate(960, 0)"/><path fill="#a81ddd" d="M0 67.5C-3.2 67.1 -6.3 66.8 -9.6 66.4C-12.8 66.1 -16.1 65.9 -19 64.8C-22 63.7 -24.6 61.7 -27.5 60.3C-30.4 58.8 -33.6 57.9 -36 55.9C-38.3 54 -39.9 50.9 -42.3 48.8C-44.7 46.7 -48 45.6 -50.1 43.4C-52.1 41.2 -53.1 37.9 -54.8 35.2C-56.5 32.5 -59.1 30.4 -60.4 27.6C-61.7 24.8 -61.7 21.4 -62.1 18.2C-62.6 15.1 -63.5 12.3 -64.5 9.3C-65.4 6.3 -66.5 3.1 -67.5 0L0 0Z" transform="translate(960, 0)"/></g><g><path fill="#00192f" d="M0 -540C24.4 -528 48.7 -516.1 73.4 -510.7C98.1 -505.4 123.2 -506.8 147.9 -503.7C172.6 -500.7 197.1 -493.2 221.4 -484.8C245.8 -476.5 270 -467.3 291.9 -454.3C313.9 -441.3 333.5 -424.4 353 -407.3C372.5 -390.3 391.9 -372.9 405.1 -351C418.3 -329.1 425.4 -302.6 434.1 -279C442.8 -255.3 453.1 -234.4 468.5 -213.9C483.8 -193.4 504.1 -173.3 509.5 -149.6C514.8 -125.9 505.2 -98.5 507.8 -73C510.4 -47.5 525.2 -23.7 540 0L0 0Z" transform="translate(0, 540)"/><path fill="#00244e" d="M0 -472.5C21.3 -462 42.6 -451.5 64.3 -446.9C85.9 -442.3 107.8 -443.4 129.4 -440.8C151.1 -438.1 172.4 -431.5 193.7 -424.2C215 -416.9 236.3 -408.9 255.5 -397.5C274.6 -386.1 291.8 -371.4 308.8 -356.4C325.9 -341.5 342.9 -326.3 354.4 -307.1C366 -288 372.2 -264.8 379.8 -244.1C387.4 -223.4 396.5 -205.1 409.9 -187.2C423.3 -169.3 441.1 -151.7 445.8 -130.9C450.5 -110.1 442 -86.2 444.3 -63.9C446.6 -41.5 459.5 -20.8 472.5 0L0 0Z" transform="translate(0, 540)"/><path fill="#002e6e" d="M0 -405C18.3 -396 36.5 -387 55.1 -383.1C73.6 -379.1 92.4 -380.1 110.9 -377.8C129.5 -375.5 147.8 -369.9 166.1 -363.6C184.3 -357.4 202.5 -350.5 219 -340.7C235.4 -330.9 250.1 -318.3 264.7 -305.5C279.3 -292.7 293.9 -279.7 303.8 -263.3C313.7 -246.8 319 -227 325.6 -209.2C332.1 -191.5 339.8 -175.8 351.3 -160.5C362.8 -145.1 378.1 -130 382.1 -112.2C386.1 -94.4 378.9 -73.9 380.8 -54.8C382.8 -35.6 393.9 -17.8 405 0L0 0Z" transform="translate(0, 540)"/><path fill="#00368d" d="M0 -337.5C15.2 -330 30.5 -322.5 45.9 -319.2C61.3 -315.9 77 -316.7 92.4 -314.8C107.9 -312.9 123.2 -308.2 138.4 -303C153.6 -297.8 168.8 -292.1 182.5 -283.9C196.2 -275.8 208.4 -265.3 220.6 -254.6C232.8 -243.9 244.9 -233.1 253.2 -219.4C261.4 -205.7 265.9 -189.1 271.3 -174.4C276.7 -159.6 283.2 -146.5 292.8 -133.7C302.4 -120.9 315.1 -108.3 318.4 -93.5C321.8 -78.7 315.7 -61.6 317.4 -45.6C319 -29.7 328.2 -14.8 337.5 0L0 0Z" transform="translate(0, 540)"/><path fill="#2d3aa9" d="M0 -270C12.2 -264 24.4 -258 36.7 -255.4C49.1 -252.7 61.6 -253.4 74 -251.9C86.3 -250.3 98.5 -246.6 110.7 -242.4C122.9 -238.2 135 -233.6 146 -227.1C156.9 -220.6 166.7 -212.2 176.5 -203.7C186.2 -195.1 195.9 -186.5 202.5 -175.5C209.2 -164.5 212.7 -151.3 217 -139.5C221.4 -127.7 226.6 -117.2 234.2 -107C241.9 -96.7 252.1 -86.7 254.7 -74.8C257.4 -62.9 252.6 -49.3 253.9 -36.5C255.2 -23.7 262.6 -11.9 270 0L0 0Z" transform="translate(0, 540)"/><path fill="#5e38c2" d="M0 -202.5C9.1 -198 18.3 -193.5 27.5 -191.5C36.8 -189.5 46.2 -190 55.5 -188.9C64.7 -187.8 73.9 -184.9 83 -181.8C92.2 -178.7 101.3 -175.2 109.5 -170.4C117.7 -165.5 125.1 -159.2 132.4 -152.8C139.7 -146.3 146.9 -139.8 151.9 -131.6C156.9 -123.4 159.5 -113.5 162.8 -104.6C166 -95.7 169.9 -87.9 175.7 -80.2C181.4 -72.5 189.1 -65 191.1 -56.1C193.1 -47.2 189.4 -37 190.4 -27.4C191.4 -17.8 196.9 -8.9 202.5 0L0 0Z" transform="translate(0, 540)"/><path fill="#8f2cd6" d="M0 -135C6.1 -132 12.2 -129 18.4 -127.7C24.5 -126.4 30.8 -126.7 37 -125.9C43.2 -125.2 49.3 -123.3 55.4 -121.2C61.4 -119.1 67.5 -116.8 73 -113.6C78.5 -110.3 83.4 -106.1 88.2 -101.8C93.1 -97.6 98 -93.2 101.3 -87.8C104.6 -82.3 106.3 -75.7 108.5 -69.7C110.7 -63.8 113.3 -58.6 117.1 -53.5C120.9 -48.4 126 -43.3 127.4 -37.4C128.7 -31.5 126.3 -24.6 126.9 -18.3C127.6 -11.9 131.3 -5.9 135 0L0 0Z" transform="translate(0, 540)"/><path fill="#a81ddd" d="M0 -67.5C3 -66 6.1 -64.5 9.2 -63.8C12.3 -63.2 15.4 -63.3 18.5 -63C21.6 -62.6 24.6 -61.6 27.7 -60.6C30.7 -59.6 33.8 -58.4 36.5 -56.8C39.2 -55.2 41.7 -53.1 44.1 -50.9C46.6 -48.8 49 -46.6 50.6 -43.9C52.3 -41.1 53.2 -37.8 54.3 -34.9C55.3 -31.9 56.6 -29.3 58.6 -26.7C60.5 -24.2 63 -21.7 63.7 -18.7C64.4 -15.7 63.1 -12.3 63.5 -9.1C63.8 -5.9 65.6 -3 67.5 0L0 0Z" transform="translate(0, 540)"/></g></svg>